<svg width="50" height="54" viewBox="0 0 50 54" fill="none" xmlns="http://www.w3.org/2000/svg">
<circle opacity="0.1" cx="25" cy="29" r="25" fill="#B47AEA"/>
<path fill-rule="evenodd" clip-rule="evenodd" d="M25 0C25.5523 1.19209e-07 26 0.447715 26 1L26 35.5858L34.2929 27.2929C34.6834 26.9024 35.3166 26.9024 35.7071 27.2929C36.0976 27.6834 36.0976 28.3166 35.7071 28.7071L25.7071 38.7071C25.4211 38.9931 24.991 39.0787 24.6173 38.9239C24.2436 38.7691 24 38.4045 24 38L24 1C24 0.447715 24.4477 -1.19209e-07 25 0ZM14.2929 27.2929C14.6834 26.9024 15.3166 26.9024 15.7071 27.2929L20.7071 32.2929C21.0976 32.6834 21.0976 33.3166 20.7071 33.7071C20.3166 34.0976 19.6834 34.0976 19.2929 33.7071L14.2929 28.7071C13.9024 28.3166 13.9024 27.6834 14.2929 27.2929Z" fill="white"/>
</svg>
