<svg width="26" height="26" viewBox="0 0 26 26" fill="none" xmlns="http://www.w3.org/2000/svg">
<circle opacity="0.1" cx="13" cy="13" r="13" transform="rotate(-180 13 13)" fill="#B47AEA"/>
<path fill-rule="evenodd" clip-rule="evenodd" d="M22 2C20.8954 2 20 2.89543 20 4C20 4.55228 19.5523 5 19 5C18.4477 5 18 4.55228 18 4C18 1.79086 19.7909 0 22 0C24.2091 0 26 1.79086 26 4C26 6.20914 24.2091 8 22 8C21.4477 8 21 7.55228 21 7C21 6.44772 21.4477 6 22 6C23.1046 6 24 5.10457 24 4C24 2.89543 23.1046 2 22 2ZM17.7071 8.29289C18.0976 8.68342 18.0976 9.31658 17.7071 9.70711L9.70711 17.7071C9.31658 18.0976 8.68342 18.0976 8.29289 17.7071C7.90237 17.3166 7.90237 16.6834 8.29289 16.2929L16.2929 8.29289C16.6834 7.90237 17.3166 7.90237 17.7071 8.29289ZM4 20C2.89543 20 2 20.8954 2 22C2 23.1046 2.89543 24 4 24C5.10457 24 6 23.1046 6 22C6 21.4477 6.44772 21 7 21C7.55228 21 8 21.4477 8 22C8 24.2091 6.20914 26 4 26C1.79086 26 1.78814e-07 24.2091 0 22C-2.38419e-07 19.7909 1.79086 18 4 18C4.55228 18 5 18.4477 5 19C5 19.5523 4.55228 20 4 20Z" fill="white"/>
</svg>
